<?xml version="1.0" encoding="UTF-8" standalone="no"?>
<!-- Created with Inkscape (http://www.inkscape.org/) -->

<svg
   width="950"
   height="1000"
   viewBox="0 0 950 1000"
   version="1.1"
   id="svg1"
   xml:space="preserve"
   inkscape:version="1.4.4 (dcaf3e7, 2026-05-05)"
   sodipodi:docname="oiva-logo-square-padded.svg"
   xmlns:inkscape="http://www.inkscape.org/namespaces/inkscape"
   xmlns:sodipodi="http://sodipodi.sourceforge.net/DTD/sodipodi-0.dtd"
   xmlns="http://www.w3.org/2000/svg"
   xmlns:svg="http://www.w3.org/2000/svg"><sodipodi:namedview
     id="namedview1"
     pagecolor="#ffffff"
     bordercolor="#000000"
     borderopacity="0.25"
     inkscape:showpageshadow="2"
     inkscape:pageopacity="0.0"
     inkscape:pagecheckerboard="0"
     inkscape:deskcolor="#d1d1d1"
     inkscape:document-units="px"
     inkscape:zoom="0.32630033"
     inkscape:cx="274.28719"
     inkscape:cy="733.9864"
     inkscape:window-width="1920"
     inkscape:window-height="1011"
     inkscape:window-x="0"
     inkscape:window-y="32"
     inkscape:window-maximized="1"
     inkscape:current-layer="g1" /><defs
     id="defs1" /><g
     inkscape:label="Layer 1"
     inkscape:groupmode="layer"
     id="layer1"><g
       id="g1"
       transform="matrix(2.4084061,0,0,2.4084061,-527.64963,-385.27867)"
       style="fill:#1a1a1a"><g
         id="g4"
         transform="matrix(0.76412872,0,0,0.76412872,101.17284,90.081334)"><path
           id="path1"
           style="fill:#1a1a1a"
           d="m 490.5429,186.35854 c -25.5498,0.53924 -46.60038,19.07896 -59.03125,22.21875 -18.10343,4.57258 -92.19234,-21.55503 -156.41601,25.41602 -39.54275,30.16731 -49.77181,73.35606 -44.48047,126.67969 0.77639,7.82411 6.56108,84.51757 7.18359,85.90625 0.62251,1.38867 2.44234,7.99602 6.65625,8.09179 4.21391,0.0958 43.89759,0.47537 45.04883,-0.0664 1.15124,-0.54176 5.70891,-3.95843 6.11523,-7.20899 0.40632,-3.25056 7.21805,-51.40447 9.21875,-58.25195 1.55585,-5.32496 5.80894,-12.59915 13.79102,-12.47852 9.64388,0.14574 13.35189,8.37497 14.00586,13.7461 1.07817,8.85517 7.86185,56.74521 8.53906,58.09961 0.6772,1.3544 1.37178,5.89843 4.96094,5.89843 3.58917,0 44.7607,0.4221 46.19726,0.13477 1.43656,-0.28731 4.78104,-1.54876 5.06836,-4.42188 0.28731,-2.87312 7.6085,-52.74602 8.53321,-59.15234 1.26554,-8.76752 4.62101,-14.44042 14.20507,-14.5 8.50995,-0.0529 12.73986,8.30022 13.40821,13.96484 0.62766,5.3198 6.52131,58.03037 7.53711,59.38477 1.0158,1.3544 2.61903,5.80078 6.95312,5.80078 0,0 42.12088,0.27149 43.33985,0.27149 5.95936,0.27088 6.33203,-7.07032 6.33203,-7.07032 0.27088,-3.92777 8.29585,-65.79608 10.46289,-89.09179 2.16704,-23.29571 23.15416,-52.6271 45.50781,-57.42774 26.9693,-5.79189 42.56244,-10.91113 49.0293,-36.56836 0.54177,-3.25056 0.13512,-6.09481 -1.89649,-7.44922 -2.0316,-1.3544 -19.93968,-8.79844 -27.76562,-20.17968 -16.26078,-23.648 -16.23359,-46.90532 -77.33594,-51.60352 -1.7421,-0.13395 -3.46465,-0.17853 -5.16797,-0.14258 z m 40.0957,49.69531 a 8.2415962,8.2788877 0 0 1 8.24219,8.2793 8.2415962,8.2788877 0 0 1 -8.24219,8.2793 8.2415962,8.2788877 0 0 1 -8.24023,-8.2793 8.2415962,8.2788877 0 0 1 8.24023,-8.2793 z" /><circle
           style="fill:#1a1a1a;stroke-width:1.11453"
           id="path2"
           cx="526.38843"
           cy="189.46161"
           r="20.111841" /><circle
           style="fill:#1a1a1a;stroke-width:1.11453"
           id="path2-6"
           cx="455.68683"
           cy="186.70638"
           r="20.111841" /><text
           xml:space="preserve"
           style="font-size:137.816px;writing-mode:lr-tb;direction:ltr;fill:#1a1a1a;stroke-width:0.71779"
           x="229.81322"
           y="563.26569"
           id="text3"><tspan
             sodipodi:role="line"
             id="tspan3"
             x="229.81322"
             y="563.26569"
             style="font-style:normal;font-variant:normal;font-weight:normal;font-stretch:normal;font-size:137.816px;font-family:Prompt;-inkscape-font-specification:Prompt;fill:#1a1a1a;stroke-width:0.71779">oiva</tspan></text></g></g></g></svg>
