<?xml version="1.0" encoding="UTF-8" standalone="no"?>
<svg
   width="200"
   height="200"
   viewBox="0 0 200 200"
   fill="none"
   version="1.1"
   id="svg23"
   sodipodi:docname="otel.svg"
   inkscape:version="1.4.4 (dcaf3e7, 2026-05-05)"
   xmlns:inkscape="http://www.inkscape.org/namespaces/inkscape"
   xmlns:sodipodi="http://sodipodi.sourceforge.net/DTD/sodipodi-0.dtd"
   xmlns="http://www.w3.org/2000/svg"
   xmlns:svg="http://www.w3.org/2000/svg">
  <sodipodi:namedview
     id="namedview23"
     pagecolor="#ffffff"
     bordercolor="#000000"
     borderopacity="0.25"
     inkscape:showpageshadow="2"
     inkscape:pageopacity="0.0"
     inkscape:pagecheckerboard="0"
     inkscape:deskcolor="#d1d1d1"
     showgrid="false"
     inkscape:zoom="2.8284271"
     inkscape:cx="148.6692"
     inkscape:cy="95.282639"
     inkscape:window-width="1920"
     inkscape:window-height="1011"
     inkscape:window-x="0"
     inkscape:window-y="32"
     inkscape:window-maximized="1"
     inkscape:current-layer="svg23" />
  <path
     d="m 487.738,178.089 c -3.28,3.281 -3.28,8.6 0,11.881 3.281,3.279 8.599,3.279 11.879,0 3.281,-3.281 3.281,-8.6 0,-11.881 -3.28,-3.279 -8.598,-3.279 -11.879,0 z m 8.88,8.888 c -0.386,0.386 -0.844,0.693 -1.349,0.902 -0.505,0.209 -1.046,0.317 -1.592,0.317 -0.546,0 -1.087,-0.108 -1.592,-0.317 -0.504,-0.209 -0.963,-0.516 -1.349,-0.902 -0.386,-0.386 -0.693,-0.845 -0.902,-1.349 -0.209,-0.505 -0.316,-1.045 -0.316,-1.591 0,-0.546 0.107,-1.087 0.316,-1.592 0.209,-0.504 0.516,-0.962 0.902,-1.348 0.386,-0.387 0.845,-0.694 1.349,-0.903 0.505,-0.209 1.046,-0.317 1.592,-0.317 0.546,0 1.087,0.108 1.592,0.317 0.505,0.209 0.963,0.516 1.349,0.903 1.624,1.616 1.624,4.256 0,5.88 z m 2.86,-50.222 -5.148,5.147 c -0.484,0.488 -0.756,1.148 -0.756,1.836 0,0.688 0.272,1.348 0.756,1.837 l 20.096,20.095 c 0.488,0.485 1.148,0.757 1.836,0.757 0.688,0 1.348,-0.272 1.836,-0.757 l 5.147,-5.147 c 1.007,-1.007 1.007,-2.664 0,-3.67 l -20.104,-20.098 c -0.487,-0.484 -1.146,-0.755 -1.832,-0.755 -0.686,0 -1.344,0.272 -1.831,0.755 z m -36.062,65.773 c 0.439,-0.441 0.685,-1.037 0.685,-1.66 0,-0.622 -0.246,-1.218 -0.685,-1.659 l -2.615,-2.617 c -0.441,-0.439 -1.038,-0.685 -1.661,-0.685 -0.622,0 -1.219,0.246 -1.66,0.685 l -5.403,5.406 -0.01,0.008 -1.482,-1.485 c -0.821,-0.821 -2.157,-0.821 -2.969,0 -0.821,0.82 -0.821,2.156 0,2.969 l 8.904,8.902 c 0.195,0.195 0.426,0.35 0.681,0.456 0.254,0.105 0.527,0.16 0.803,0.16 0.275,0 0.548,-0.055 0.803,-0.16 0.254,-0.106 0.485,-0.261 0.68,-0.456 0.813,-0.82 0.821,-2.156 0,-2.966 l -1.484,-1.485 0.01,-0.007 z"
     fill="#f5a800"
     id="path9"
     transform="matrix(1.8641825,0,0,1.8641825,-806.56217,-231.30365)" />
  <path
     d="m 490.647,151.53 -11.434,11.434 c -1.016,1.016 -1.016,2.689 0,3.705 l 7.061,7.059 c 4.99,-3.592 11.989,-3.148 16.479,1.345 l 5.718,-5.718 c 1.014,-1.016 1.014,-2.686 0,-3.702 L 494.35,151.53 c -0.243,-0.243 -0.532,-0.436 -0.849,-0.567 -0.318,-0.132 -0.658,-0.2 -1.002,-0.2 -0.344,0 -0.684,0.068 -1.002,0.2 -0.317,0.131 -0.607,0.324 -0.85,0.567 z m -7.342,25.174 -4.171,-4.171 c -0.977,-0.976 -2.578,-0.976 -3.553,0 l -14.708,14.715 c -0.469,0.472 -0.732,1.111 -0.732,1.777 0,0.666 0.263,1.305 0.732,1.777 l 8.333,8.334 c 0.473,0.469 1.112,0.733 1.778,0.733 0.666,0 1.305,-0.264 1.777,-0.733 l 9.459,-9.474 c -1.999,-4.132 -1.641,-9.122 1.085,-12.958 z"
     fill="#425cc7"
     id="path10"
     transform="matrix(1.8641825,0,0,1.8641825,-806.56217,-231.30365)" />
  <defs
     id="defs23">
    <filter
       id="filter0_d_8472_548"
       x="437"
       y="126"
       width="117"
       height="117.008"
       filterUnits="userSpaceOnUse"
       color-interpolation-filters="sRGB">
      <feFlood
         flood-opacity="0"
         result="BackgroundImageFix"
         id="feFlood21" />
      <feColorMatrix
         in="SourceAlpha"
         type="matrix"
         values="0 0 0 0 0 0 0 0 0 0 0 0 0 0 0 0 0 0 127 0"
         result="hardAlpha"
         id="feColorMatrix21" />
      <feOffset
         dx="10"
         dy="10"
         id="feOffset21" />
      <feGaussianBlur
         stdDeviation="9.9068775"
         id="feGaussianBlur21" />
      <feComposite
         in2="hardAlpha"
         operator="out"
         id="feComposite21" />
      <feColorMatrix
         type="matrix"
         values="0 0 0 0 0 0 0 0 0 0 0 0 0 0 0 0 0 0 0.1 0"
         id="feColorMatrix22" />
      <feBlend
         mode="normal"
         in2="BackgroundImageFix"
         result="effect1_dropShadow_8472_548"
         id="feBlend22" />
      <feBlend
         mode="normal"
         in="SourceGraphic"
         in2="effect1_dropShadow_8472_548"
         result="shape"
         id="feBlend23" />
    </filter>
    <clipPath
       clipPathUnits="userSpaceOnUse"
       id="clipPath23">
      <rect
         width="654"
         height="350"
         fill="#ffffff"
         id="rect24"
         x="0"
         y="0" />
    </clipPath>
    <clipPath
       clipPathUnits="userSpaceOnUse"
       id="clipPath24">
      <rect
         width="654"
         height="350"
         fill="#ffffff"
         id="rect25"
         x="0"
         y="0" />
    </clipPath>
    <clipPath
       clipPathUnits="userSpaceOnUse"
       id="clipPath25">
      <rect
         width="654"
         height="350"
         fill="#ffffff"
         id="rect26"
         x="0"
         y="0" />
    </clipPath>
    <filter
       id="filter28"
       x="437"
       y="126"
       width="117"
       height="117.008"
       filterUnits="userSpaceOnUse"
       color-interpolation-filters="sRGB">
      <feFlood
         flood-opacity="0"
         result="BackgroundImageFix"
         id="feFlood26" />
      <feColorMatrix
         in="SourceAlpha"
         type="matrix"
         values="0 0 0 0 0 0 0 0 0 0 0 0 0 0 0 0 0 0 127 0"
         result="hardAlpha"
         id="feColorMatrix26" />
      <feOffset
         dx="10"
         dy="10"
         id="feOffset26" />
      <feGaussianBlur
         stdDeviation="0.000392786"
         id="feGaussianBlur26" />
      <feComposite
         in2="hardAlpha"
         operator="out"
         id="feComposite26" />
      <feColorMatrix
         type="matrix"
         values="0 0 0 0 0 0 0 0 0 0 0 0 0 0 0 0 0 0 0.1 0"
         id="feColorMatrix27" />
      <feBlend
         mode="normal"
         in2="BackgroundImageFix"
         result="effect1_dropShadow_8472_548"
         id="feBlend27" />
      <feBlend
         mode="normal"
         in="SourceGraphic"
         in2="effect1_dropShadow_8472_548"
         result="shape"
         id="feBlend28" />
    </filter>
  </defs>
</svg>
